<svg xmlns="http://www.w3.org/2000/svg" viewBox="0 0 181.42 181.42">
    <path d="M32.43,166.46c0-.28.19-.43.35-.6a49.6,49.6,0,0,0,10.95-20.44,50.25,50.25,0,0,0-1-30.82,158.27,158.27,0,0,0-7-15.28,59.06,59.06,0,0,1-4.1-42.76C35.13,43.85,42,33.19,53.07,25.92c19.64-12.84,40.24-13.5,60.77-2.52s31.94,29.06,35.87,51.88c1.37,8,1.7,16.07,2.17,24.14a54,54,0,0,1-3.66,23.78c-2.36,5.83-5,11.51-7.86,17.13a57.68,57.68,0,0,1-7,11,26.3,26.3,0,0,1-22.58,10c-7.86-.37-14.81-3.24-21.13-7.72C80.5,147.16,73,139,66.34,130c-5.77-7.86-9.54-16.49-8.47-26.59,0-.31,0-.55-.38-.6s-.56.12-.62.51a24.09,24.09,0,0,0-.2,4.07c.2,7,2.62,13.39,6.26,19.3,4.93,8,11.34,14.79,18.1,21.25A60,60,0,0,0,95,158a37.15,37.15,0,0,0,18.24,4.37c.41,0,1-.31,1.07.52a9.51,9.51,0,0,0,1.06,3.53M118.06,126h0c1.31.08,2.63.21,4,.22,4.57.05,7.33-2.5,5.88-7.34-2.34-7.77-4.42-15.62-6.62-23.44-.63-2.23-.62-2.16-2.85-1.63-1,.25-1.09.64-.83,1.54,1.84,6.42,3.63,12.85,5.45,19.27.53,1.89,1.07,3.77,1.59,5.66.45,1.66,0,2.3-1.75,2.41a17.53,17.53,0,0,1-2,0c-5.35-.29-10.7-.63-16.06-.9-2.29-.11-1.87-.5-2.1,1.86-.15,1.51-.09,1.53,1.48,1.61C108.78,125.49,113.42,125.73,118.06,126Zm-4.51,11.19h0l-13-.48c-2.7-.09-2.67-.09-2.64,2.6,0,.71.27.86.91.88l28.06,1c2.24.08,2.21,0,2.31-2.25,0-.83-.1-1.2-1.06-1.23C123.31,137.56,118.43,137.35,113.55,137.17ZM86.25,88.73a4.69,4.69,0,1,0,4.69-4.66A4.75,4.75,0,0,0,86.25,88.73Zm53,.66a4.73,4.73,0,0,0-4.74-4.61,4.64,4.64,0,1,0,.08,9.28A4.72,4.72,0,0,0,139.21,89.39Z"
          fill="#a4a5a4"/>
    <path d="M31.22,166.46c-.28-.48.24-.59.42-.79,9.17-10.27,13.2-22.42,13-36-.11-7.27-2.2-14.1-5.3-20.64C36.84,103.71,34,98.58,32,93.09,24.19,71.63,29.2,45.55,47,29.34A54.39,54.39,0,0,1,75.71,15.77C95.28,12.68,112.3,18.52,127,31.29c12.89,11.16,20.32,25.53,23.4,42.21,1.33,7.18,1.72,14.46,2.22,21.73.19,2.84.29,5.68.32,8.52a49.35,49.35,0,0,1-3.5,18.88,161.59,161.59,0,0,1-11.37,23.78,34.3,34.3,0,0,1-11.49,12.21,25,25,0,0,1-10.37,3.53c-.8.09-1,.35-.92,1.11a10,10,0,0,0,1.23,3.2h-1.2a9.51,9.51,0,0,1-1.06-3.53c0-.83-.66-.53-1.07-.52A37.15,37.15,0,0,1,95,158a60,60,0,0,1-14-10.13c-6.76-6.46-13.17-13.23-18.1-21.25-3.64-5.91-6.06-12.25-6.26-19.3a24.09,24.09,0,0,1,.2-4.07c.06-.39.2-.57.62-.51s.42.29.38.6c-1.07,10.1,2.7,18.73,8.47,26.59,6.61,9,14.16,17.19,23.33,23.7,6.32,4.48,13.27,7.35,21.13,7.72a26.3,26.3,0,0,0,22.58-10,57.68,57.68,0,0,0,7-11c2.82-5.62,5.5-11.3,7.86-17.13a54,54,0,0,0,3.66-23.78c-.47-8.07-.8-16.16-2.17-24.14-3.93-22.82-15.2-40.85-35.87-51.88S72.71,13.08,53.07,25.92C42,33.19,35.13,43.85,31.66,56.56a59.06,59.06,0,0,0,4.1,42.76,158.27,158.27,0,0,1,7,15.28,50.25,50.25,0,0,1,1,30.82,49.6,49.6,0,0,1-10.95,20.44c-.16.17-.37.32-.35.6Z"
          fill="#0b0e0e"/>
    <path d="M118.06,126c-4.64-.25-9.28-.49-13.91-.75-1.57-.08-1.63-.1-1.48-1.61.23-2.36-.19-2,2.1-1.86,5.36.27,10.71.61,16.06.9a17.53,17.53,0,0,0,2,0c1.74-.11,2.2-.75,1.75-2.41-.52-1.89-1.06-3.77-1.59-5.66-1.82-6.42-3.61-12.85-5.45-19.27-.26-.9-.19-1.29.83-1.54,2.23-.53,2.22-.6,2.85,1.63,2.2,7.82,4.28,15.67,6.62,23.44,1.45,4.84-1.31,7.39-5.88,7.34-1.32,0-2.64-.14-4-.22Z"
          fill="#040404"/>
    <path d="M113.55,137.17c4.88.18,9.76.39,14.63.52,1,0,1.1.4,1.06,1.23-.1,2.28-.07,2.33-2.31,2.25l-28.06-1c-.64,0-.9-.17-.91-.88,0-2.69-.06-2.69,2.64-2.6l13,.48Z"
          fill="#040404"/>
    <path d="M86.25,88.73A4.69,4.69,0,1,1,91,93.35,4.76,4.76,0,0,1,86.25,88.73Z" fill="#030303"/>
    <path d="M139.21,89.39a4.72,4.72,0,0,1-4.66,4.67,4.64,4.64,0,1,1-.08-9.28A4.73,4.73,0,0,1,139.21,89.39Z"
          fill="#030303"/>
</svg>